<svg width="24" height="24" viewBox="0 0 24 24" fill="none" xmlns="http://www.w3.org/2000/svg">
<path fill-rule="evenodd" clip-rule="evenodd" d="M10.815 1.2C10.8292 1.18507 10.8433 1.17027 10.8573 1.15559C11.3713 0.616071 12.2588 0.842733 12.5455 1.53059C12.5491 1.5394 12.5528 1.54821 12.5565 1.557C13.7745 4.476 15.666 6.582 17.352 8.457C19.317 10.644 21 12.5175 21 15C21 17.3869 20.0518 19.6761 18.364 21.364C16.6761 23.0518 14.3869 24 12 24C9.61305 24 7.32387 23.0518 5.63604 21.364C3.94821 19.6761 3 17.3869 3 15C3 10.002 8.37 3.7755 10.815 1.2ZM12.1165 4.0622C11.7663 3.44181 10.9036 3.3073 10.437 3.84561C9.83399 4.54121 9.25174 5.25465 8.691 5.985C7.602 7.41 6.537 8.997 5.751 10.59C4.956 12.1995 4.5 13.707 4.5 15C4.5 16.9891 5.29018 18.8968 6.6967 20.3033C8.10322 21.7098 10.0109 22.5 12 22.5C13.9891 22.5 15.8968 21.7098 17.3033 20.3033C18.7098 18.8968 19.5 16.9891 19.5 15C19.5 13.1985 18.306 11.7645 16.2285 9.45L16.1835 9.402C14.8783 7.94732 13.3511 6.24961 12.1165 4.0622Z" fill="black"/>
<path fill-rule="evenodd" clip-rule="evenodd" d="M7.49883 11.9999C7.12883 11.8144 6.97795 11.3637 7.17405 10.9992C8.01707 9.43248 8.87489 8.24347 9.46815 7.52845C9.73304 7.20919 10.2066 7.20725 10.5 7.50059C10.793 7.79366 10.7968 8.27208 10.5357 8.59389C10.0219 9.22695 9.26948 10.2775 8.51662 11.6699C8.31945 12.0345 7.86944 12.1856 7.49883 11.9999Z" fill="black"/>
</svg>
