<svg width="24" height="24" viewBox="0 0 24 24" fill="none" xmlns="http://www.w3.org/2000/svg">
<path d="M5 16V16.18C3.84 16.59 3 17.69 3 19C3 20.65 4.35 22 6 22C7.65 22 9 20.65 9 19C9 17.7 8.16 16.6 7 16.18V13H16.5C17.163 13 17.7989 12.7366 18.2678 12.2678C18.7366 11.7989 19 11.163 19 10.5V7.82C20.16 7.41 21 6.31 21 5C21 3.35 19.65 2 18 2C16.35 2 15 3.35 15 5C15 6.3 15.84 7.4 17 7.82V10.5C17 10.78 16.78 11 16.5 11H7V7.82C8.16 7.41 9 6.31 9 5C9 3.35 7.65 2 6 2C4.35 2 3 3.35 3 5C3 6.3 3.84 7.4 5 7.82V16Z" fill="black"/>
</svg>
