<svg width="24" height="24" viewBox="0 0 24 24" fill="none" xmlns="http://www.w3.org/2000/svg">
<path d="M6.68534 18.3748L9.87809 15.1821L8.81759 14.1216L5.62484 17.3143L5.03009 16.7196C4.88944 16.579 4.69871 16.5 4.49984 16.5C4.30097 16.5 4.11024 16.579 3.96959 16.7196L0.96959 19.7196C0.828987 19.8602 0.75 20.051 0.75 20.2498C0.75 20.4487 0.828987 20.6394 0.96959 20.7801L3.21959 23.0301C3.36024 23.1707 3.55097 23.2497 3.74984 23.2497C3.94871 23.2497 4.13944 23.1707 4.28009 23.0301L7.28009 20.0301C7.42069 19.8894 7.49968 19.6987 7.49968 19.4998C7.49968 19.301 7.42069 19.1102 7.28009 18.9696L6.68534 18.3748ZM3.74984 21.4393L2.56034 20.2498L4.49984 18.3103L5.68934 19.4998L3.74984 21.4393Z" fill="black"/>
<path d="M17.9999 22.4998C16.8069 22.4984 15.6631 22.0239 14.8195 21.1803C13.9759 20.3367 13.5013 19.1929 13.4999 17.9998C13.4999 17.6077 13.5529 17.2175 13.6574 16.8396L7.16091 10.3423C6.78243 10.4452 6.39212 10.4981 5.99991 10.4998C5.26674 10.5028 4.54403 10.3258 3.89517 9.9844C3.24631 9.64303 2.6911 9.14768 2.27822 8.5418C1.86534 7.93592 1.6074 7.23801 1.52702 6.50924C1.44664 5.78048 1.54626 5.04312 1.81716 4.36182L2.23566 3.29607L4.71966 5.78007C4.86244 5.91659 5.05237 5.99279 5.24991 5.99279C5.44746 5.99279 5.63739 5.91659 5.78016 5.78007C5.92077 5.63942 5.99975 5.44869 5.99975 5.24982C5.99975 5.05095 5.92077 4.86022 5.78016 4.71957L3.29466 2.23407L4.36191 1.81632C5.04328 1.54559 5.78065 1.44611 6.5094 1.52662C7.23815 1.60712 7.93603 1.86514 8.54188 2.27807C9.14772 2.691 9.64304 3.24623 9.98441 3.89509C10.3258 4.54395 10.5028 5.26664 10.4999 5.99982C10.4999 6.3919 10.447 6.78219 10.3424 7.16007L16.8397 13.6573C17.2179 13.5545 17.608 13.5016 17.9999 13.4998C18.7331 13.4969 19.4558 13.6739 20.1047 14.0152C20.7535 14.3566 21.3087 14.852 21.7216 15.4578C22.1345 16.0637 22.3924 16.7616 22.4728 17.4904C22.5532 18.2192 22.4536 18.9565 22.1827 19.6378L21.7649 20.7036L19.2802 18.2196C19.1374 18.0833 18.9477 18.0072 18.7503 18.0072C18.5529 18.0072 18.3632 18.0833 18.2204 18.2196C18.0797 18.3601 18.0006 18.5508 18.0005 18.7497C18.0003 18.9485 18.0792 19.1393 18.2197 19.2801L20.7044 21.7648L19.6379 22.1833C19.1164 22.39 18.5609 22.4973 17.9999 22.4998ZM7.54716 8.60682L15.3922 16.4533L15.2129 16.9101C15.0373 17.3492 14.9686 17.8238 15.0126 18.2947C15.0566 18.7656 15.212 19.2193 15.466 19.6182C15.7199 20.0172 16.0652 20.35 16.4732 20.5892C16.8812 20.8284 17.3402 20.9671 17.8124 20.9938L17.1592 20.3413C16.9502 20.1324 16.7844 19.8843 16.6713 19.6113C16.5582 19.3383 16.5 19.0457 16.5 18.7502C16.5 18.4547 16.5582 18.1621 16.6713 17.8891C16.7844 17.6161 16.9502 17.368 17.1592 17.1591C17.5876 16.7495 18.1575 16.5208 18.7503 16.5208C19.343 16.5208 19.913 16.7495 20.3414 17.1591L20.9939 17.8123C20.9671 17.3401 20.8283 16.881 20.589 16.4731C20.3497 16.0651 20.0168 15.7198 19.6178 15.4659C19.2188 15.2119 18.7651 15.0565 18.2941 15.0125C17.8232 14.9685 17.3486 15.0372 16.9094 15.2128L16.4527 15.3921L8.60766 7.54707L8.78766 7.08957C8.96316 6.65039 9.03168 6.17576 8.98756 5.70488C8.94345 5.23399 8.78796 4.78036 8.53395 4.38142C8.27993 3.98247 7.93466 3.64967 7.52666 3.41049C7.11865 3.17131 6.6596 3.0326 6.18741 3.00582L6.83991 3.65832C7.04889 3.86726 7.21465 4.11531 7.32775 4.38832C7.44085 4.66133 7.49906 4.95394 7.49906 5.24944C7.49906 5.54495 7.44085 5.83756 7.32775 6.11057C7.21465 6.38358 7.04889 6.63163 6.83991 6.84057C6.41146 7.25019 5.84154 7.47879 5.24879 7.47879C4.65603 7.47879 4.08611 7.25019 3.65766 6.84057L3.00516 6.18732C3.03189 6.65951 3.17058 7.11856 3.40977 7.52657C3.64896 7.93457 3.98179 8.27981 4.38076 8.53378C4.77973 8.78774 5.2334 8.94314 5.7043 8.98714C6.17519 9.03114 6.6498 8.96248 7.08891 8.78682L7.54716 8.60682Z" fill="black"/>
<path d="M21.8421 2.13773C21.4136 1.72811 20.8437 1.49951 20.2509 1.49951C19.6582 1.49951 19.0883 1.72811 18.6598 2.13773L13.0498 7.74773L14.1103 8.80823L19.7203 3.19823C19.8632 3.06188 20.0531 2.9858 20.2506 2.9858C20.448 2.9858 20.6379 3.06188 20.7808 3.19823C20.9214 3.33888 21.0004 3.52961 21.0004 3.72848C21.0004 3.92736 20.9214 4.11809 20.7808 4.25873L15.1708 9.86873L16.2313 10.93L21.8413 5.31998C22.2628 4.89772 22.4995 4.32548 22.4995 3.72886C22.4995 3.13224 22.2635 2.55999 21.8421 2.13773Z" fill="black"/>
</svg>
