<svg width="34" height="34" viewBox="0 0 34 34" fill="none" xmlns="http://www.w3.org/2000/svg">
<path d="M5.6001 5.95005C5.6001 5.11462 5.93197 4.3134 6.52271 3.72266C7.11345 3.13192 7.91467 2.80005 8.7501 2.80005H19.9501C20.7855 2.80005 21.5867 3.13192 22.1775 3.72266C22.7682 4.3134 23.1001 5.11462 23.1001 5.95005V13.3H24.8501C25.2638 13.3 25.6734 13.3815 26.0556 13.5398C26.4377 13.6981 26.785 13.9302 27.0775 14.2227C27.37 14.5152 27.602 14.8624 27.7603 15.2446C27.9186 15.6268 28.0001 16.0364 28.0001 16.45V29.75C28.0001 30.0285 27.8895 30.2956 27.6926 30.4925C27.4956 30.6894 27.2286 30.8 26.9501 30.8H23.1001V25.55C23.1001 24.584 22.3161 23.8 21.3501 23.8H12.2501C11.2841 23.8 10.5001 24.584 10.5001 25.55V30.8H6.6501C6.37162 30.8 6.10455 30.6894 5.90764 30.4925C5.71072 30.2956 5.6001 30.0285 5.6001 29.75V5.95005ZM21.0001 25.9V30.8H17.8501V25.9H21.0001ZM15.7501 25.9V30.8H12.6001V25.9H15.7501ZM10.5001 9.10005C10.5001 9.47135 10.6476 9.82745 10.9101 10.09C11.1727 10.3525 11.5288 10.5 11.9001 10.5C12.2714 10.5 12.6275 10.3525 12.89 10.09C13.1526 9.82745 13.3001 9.47135 13.3001 9.10005C13.3001 8.72875 13.1526 8.37265 12.89 8.1101C12.6275 7.84755 12.2714 7.70005 11.9001 7.70005C11.5288 7.70005 11.1727 7.84755 10.9101 8.1101C10.6476 8.37265 10.5001 8.72875 10.5001 9.10005ZM11.9001 17.5C11.5288 17.5 11.1727 17.6475 10.9101 17.9101C10.6476 18.1727 10.5001 18.5287 10.5001 18.9C10.5001 19.2714 10.6476 19.6274 10.9101 19.89C11.1727 20.1525 11.5288 20.3 11.9001 20.3C12.2714 20.3 12.6275 20.1525 12.89 19.89C13.1526 19.6274 13.3001 19.2714 13.3001 18.9C13.3001 18.5287 13.1526 18.1727 12.89 17.9101C12.6275 17.6475 12.2714 17.5 11.9001 17.5ZM11.9001 12.6C11.5288 12.6 11.1727 12.7475 10.9101 13.0101C10.6476 13.2727 10.5001 13.6287 10.5001 14C10.5001 14.3714 10.6476 14.7274 10.9101 14.99C11.1727 15.2525 11.5288 15.4 11.9001 15.4C12.2714 15.4 12.6275 15.2525 12.89 14.99C13.1526 14.7274 13.3001 14.3714 13.3001 14C13.3001 13.6287 13.1526 13.2727 12.89 13.0101C12.6275 12.7475 12.2714 12.6 11.9001 12.6ZM16.8001 7.70005C16.4288 7.70005 16.0727 7.84755 15.8101 8.1101C15.5476 8.37265 15.4001 8.72875 15.4001 9.10005C15.4001 9.47135 15.5476 9.82745 15.8101 10.09C16.0727 10.3525 16.4288 10.5 16.8001 10.5C17.1714 10.5 17.5275 10.3525 17.79 10.09C18.0526 9.82745 18.2001 9.47135 18.2001 9.10005C18.2001 8.72875 18.0526 8.37265 17.79 8.1101C17.5275 7.84755 17.1714 7.70005 16.8001 7.70005ZM16.8001 17.5C16.4288 17.5 16.0727 17.6475 15.8101 17.9101C15.5476 18.1727 15.4001 18.5287 15.4001 18.9C15.4001 19.2714 15.5476 19.6274 15.8101 19.89C16.0727 20.1525 16.4288 20.3 16.8001 20.3C17.1714 20.3 17.5275 20.1525 17.79 19.89C18.0526 19.6274 18.2001 19.2714 18.2001 18.9C18.2001 18.5287 18.0526 18.1727 17.79 17.9101C17.5275 17.6475 17.1714 17.5 16.8001 17.5ZM21.7001 17.5C21.3288 17.5 20.9727 17.6475 20.7101 17.9101C20.4476 18.1727 20.3001 18.5287 20.3001 18.9C20.3001 19.2714 20.4476 19.6274 20.7101 19.89C20.9727 20.1525 21.3288 20.3 21.7001 20.3C22.0714 20.3 22.4275 20.1525 22.69 19.89C22.9526 19.6274 23.1001 19.2714 23.1001 18.9C23.1001 18.5287 22.9526 18.1727 22.69 17.9101C22.4275 17.6475 22.0714 17.5 21.7001 17.5ZM16.8001 12.6C16.4288 12.6 16.0727 12.7475 15.8101 13.0101C15.5476 13.2727 15.4001 13.6287 15.4001 14C15.4001 14.3714 15.5476 14.7274 15.8101 14.99C16.0727 15.2525 16.4288 15.4 16.8001 15.4C17.1714 15.4 17.5275 15.2525 17.79 14.99C18.0526 14.7274 18.2001 14.3714 18.2001 14C18.2001 13.6287 18.0526 13.2727 17.79 13.0101C17.5275 12.7475 17.1714 12.6 16.8001 12.6Z" fill="black"/>
</svg>
