<svg width="24" height="24" viewBox="0 0 24 24" fill="none" xmlns="http://www.w3.org/2000/svg">
<path fill-rule="evenodd" clip-rule="evenodd" d="M4.5045 7.05298L10.8345 4.01548C11.1984 3.84135 11.5966 3.75097 12 3.75097C12.4034 3.75097 12.8016 3.84135 13.1655 4.01548L19.4955 7.05298C19.7212 7.16198 19.9117 7.33235 20.0452 7.54457C20.1786 7.75679 20.2496 8.00229 20.25 8.25298V8.99998C20.2499 11.1518 19.7084 13.269 18.6753 15.1566C17.6423 17.0442 16.1509 18.6415 14.3385 19.8015L12.8595 20.748C12.6031 20.9127 12.3048 21.0003 12 21.0003C11.6952 21.0003 11.3969 20.9127 11.1405 20.748L9.6615 19.803C7.8489 18.6429 6.35737 17.0453 5.3243 15.1574C4.29123 13.2695 3.74984 11.152 3.75 8.99998V8.25298C3.75 7.74148 4.044 7.27498 4.5045 7.05298ZM9.8595 1.98748L3.531 5.02498C2.92303 5.31742 2.40992 5.77547 2.05064 6.3465C1.69136 6.91752 1.5005 7.57833 1.5 8.25298V8.99998C1.49987 11.5294 2.13621 14.0182 3.35041 16.2371C4.5646 18.4561 6.31762 20.3339 8.448 21.6975L9.927 22.6425C10.5456 23.0392 11.2651 23.2501 12 23.2501C12.7349 23.2501 13.4544 23.0392 14.073 22.6425L15.552 21.6975C17.6824 20.3339 19.4354 18.4561 20.6496 16.2371C21.8638 14.0182 22.5001 11.5294 22.5 8.99998V8.25298C22.5 6.87598 21.711 5.62048 20.469 5.02498L14.139 1.98748C13.4713 1.66755 12.7404 1.50146 12 1.50146C11.2596 1.50146 10.5272 1.66755 9.8595 1.98748ZM12.705 14.955C12.5945 15.058 12.5058 15.1822 12.4443 15.3202C12.3828 15.4582 12.3498 15.6071 12.3471 15.7582C12.3444 15.9092 12.3722 16.0593 12.4288 16.1994C12.4854 16.3395 12.5696 16.4667 12.6764 16.5735C12.7833 16.6804 12.9105 16.7646 13.0506 16.8212C13.1907 16.8777 13.3407 16.9055 13.4918 16.9029C13.6428 16.9002 13.7918 16.8671 13.9298 16.8056C14.0678 16.7442 14.192 16.6555 14.295 16.545C15.1575 15.684 15.972 14.448 16.569 13.2525C17.148 12.0945 17.625 10.773 17.625 9.74998C17.625 9.45161 17.5065 9.16546 17.2955 8.95448C17.0845 8.7435 16.7984 8.62498 16.5 8.62498C16.2016 8.62498 15.9155 8.7435 15.7045 8.95448C15.4935 9.16546 15.375 9.45161 15.375 9.74998C15.375 10.227 15.102 11.1555 14.556 12.2475C14.028 13.302 13.3425 14.316 12.705 14.955Z" fill="black"/>
</svg>
