<svg width="34" height="34" viewBox="0 0 34 34" fill="none" xmlns="http://www.w3.org/2000/svg">
<path d="M13.1602 2.80005H5.0402C4.57628 2.80005 4.2002 3.17613 4.2002 3.64005V8.96005C4.2002 9.42397 4.57628 9.80005 5.0402 9.80005H13.1602C13.6241 9.80005 14.0002 9.42397 14.0002 8.96005V3.64005C14.0002 3.17613 13.6241 2.80005 13.1602 2.80005Z" fill="#181D27" stroke="#181D27" stroke-width="1.68"/>
<path d="M20.8604 23.8H12.7404C12.2765 23.8 11.9004 24.1761 11.9004 24.64V29.96C11.9004 30.424 12.2765 30.8 12.7404 30.8H20.8604C21.3243 30.8 21.7004 30.424 21.7004 29.96V24.64C21.7004 24.1761 21.3243 23.8 20.8604 23.8Z" fill="#181D27" stroke="#181D27" stroke-width="1.68"/>
<path d="M28.5601 2.80005H20.4401C19.9762 2.80005 19.6001 3.17613 19.6001 3.64005V8.96005C19.6001 9.42397 19.9762 9.80005 20.4401 9.80005H28.5601C29.024 9.80005 29.4001 9.42397 29.4001 8.96005V3.64005C29.4001 3.17613 29.024 2.80005 28.5601 2.80005Z" fill="#181D27" stroke="#181D27" stroke-width="1.68"/>
<path d="M9.1001 9.80005V14.7C9.1001 15.4427 9.3951 16.1548 9.9202 16.6799C10.4453 17.205 11.1575 17.5 11.9001 17.5H21.7001C22.4427 17.5 23.1549 17.205 23.68 16.6799C24.2051 16.1548 24.5001 15.4427 24.5001 14.7V9.80005M16.8001 17.5V23.8" stroke="#181D27" stroke-width="1.68"/>
</svg>
