<svg width="24" height="24" viewBox="0 0 24 24" fill="none" xmlns="http://www.w3.org/2000/svg">
<path d="M15.0001 12L5.62706 21.373C5.43007 21.57 5.19621 21.7264 4.93881 21.833C4.68142 21.9397 4.40553 21.9946 4.12691 21.9947C3.56421 21.9948 3.02451 21.7713 2.62656 21.3735C2.2286 20.9757 2.00498 20.4361 2.00488 19.8734C2.00479 19.3107 2.22823 18.771 2.62606 18.373L12.0001 9M18.0001 15L22.0001 11" stroke="black" stroke-width="2" stroke-linecap="round" stroke-linejoin="round"/>
<path d="M21.5 11.5L19.586 9.586C19.2109 9.21101 19.0001 8.70239 19 8.172V7.828C18.9999 7.29761 18.7891 6.78899 18.414 6.414L16.757 4.757C15.6321 3.63232 14.1067 3.00034 12.516 3H9L10.243 4.243C11.3679 5.36812 11.9999 6.89397 12 8.485V10L14 12H15.172C15.7024 12.0001 16.211 12.2109 16.586 12.586L18.5 14.5" stroke="black" stroke-width="2" stroke-linecap="round" stroke-linejoin="round"/>
</svg>
