<svg width="24" height="24" viewBox="0 0 24 24" fill="none" xmlns="http://www.w3.org/2000/svg">
<path d="M16.75 11.9999H20.382C20.5524 12 20.7199 12.0436 20.8687 12.1267C21.0175 12.2097 21.1426 12.3294 21.2322 12.4743C21.3218 12.6193 21.3728 12.7847 21.3805 12.9549C21.3881 13.1251 21.3522 13.2945 21.276 13.4469L19.242 17.5159C19.1649 17.6701 19.0492 17.8017 18.9062 17.898C18.7632 17.9943 18.5977 18.052 18.4259 18.0655C18.254 18.079 18.0816 18.0478 17.9253 17.975C17.769 17.9022 17.6342 17.7902 17.534 17.6499L15.41 14.6799M2 18.9999H5.76C6.13273 19.0025 6.49877 18.9009 6.81682 18.7065C7.13487 18.5122 7.39228 18.2328 7.56 17.8999L9 14.9999M2 20.9999V16.9999M7 8.99992H7.01M17.106 9.05292C17.343 9.17156 17.5232 9.37945 17.607 9.6309C17.6909 9.88235 17.6714 10.1568 17.553 10.3939L14.447 16.6049C14.3883 16.7224 14.3069 16.8272 14.2077 16.9132C14.1084 16.9993 13.9932 17.0649 13.8686 17.1064C13.744 17.1479 13.6124 17.1645 13.4814 17.1551C13.3504 17.1458 13.2225 17.1107 13.105 17.0519L3.61 12.2999C2.92033 11.9525 2.39635 11.3461 2.15272 10.6133C1.90909 9.88055 1.96564 9.0811 2.31 8.38992L3.69 5.59992C3.862 5.25714 4.09984 4.9516 4.38994 4.70075C4.68003 4.4499 5.0167 4.25866 5.38072 4.13794C5.74474 4.01722 6.12897 3.96939 6.51147 3.99718C6.89398 4.02497 7.26726 4.12784 7.61 4.29992L17.106 9.05292Z" stroke="black" stroke-width="2" stroke-linecap="round" stroke-linejoin="round"/>
</svg>
