<svg width="24" height="24" viewBox="0 0 24 24" fill="none" xmlns="http://www.w3.org/2000/svg">
<path d="M13.0575 2.57711L5.11652 13.3171C5.05463 13.4023 5.01584 13.502 5.00392 13.6067C4.992 13.7113 5.00737 13.8172 5.04852 13.9141C5.08765 14.0087 5.15285 14.0902 5.23652 14.1491C5.31661 14.2048 5.41201 14.2341 5.50952 14.2331H11.4955L10.5885 21.2561C10.5841 21.3028 10.5935 21.3497 10.6155 21.3911C10.6359 21.4308 10.669 21.4624 10.7095 21.4811C10.7502 21.5011 10.7919 21.5054 10.8345 21.4941C10.8769 21.4831 10.9145 21.4585 10.9415 21.4241L18.8825 10.6831C18.9444 10.5979 18.9832 10.4982 18.9951 10.3936C19.007 10.2889 18.9917 10.183 18.9505 10.0861C18.9112 9.99191 18.846 9.91078 18.7625 9.85211C18.6826 9.79611 18.5871 9.76641 18.4895 9.76711H12.5035L13.4105 2.74411C13.4149 2.69744 13.4055 2.65051 13.3835 2.60911C13.3631 2.56947 13.33 2.53779 13.2895 2.51911C13.2503 2.50146 13.2065 2.4969 13.1645 2.50611C13.1222 2.51711 13.0846 2.5427 13.0575 2.57711Z" stroke="black" stroke-width="1.5" stroke-linecap="round" stroke-linejoin="round"/>
</svg>
