<svg width="24" height="24" viewBox="0 0 24 24" fill="none" xmlns="http://www.w3.org/2000/svg">
<path d="M9.27776 14.6111C9.30896 14.1004 9.2026 13.5907 8.96976 13.1351C7.73876 10.6531 10.6818 7.94809 13.1828 9.00309C16.6928 10.4421 16.1138 17.0191 14.5738 19.8231M15.2398 3.55509C8.58676 0.354086 0.630756 7.27809 3.26676 14.1651" stroke="black" stroke-width="1.5" stroke-linecap="round" stroke-linejoin="round"/>
<path d="M7.06076 7.66214C7.91634 6.83067 8.97426 6.23709 10.1298 5.94014C11.2834 5.64324 12.4949 5.65462 13.6428 5.97314C14.7925 6.29194 15.839 6.90553 16.6788 7.75314C17.5222 8.6035 18.1298 9.65876 18.4418 10.8151M11.8028 11.7081C12.4178 13.3671 12.6048 15.1561 12.3448 16.9071C11.9506 18.5015 11.2013 19.9861 10.1528 21.2501M5.91576 10.3051C5.59861 11.4864 5.66301 12.7377 6.09976 13.8801C6.36329 14.7211 6.32796 15.6273 5.99976 16.4451C5.67222 17.2606 5.07216 17.9374 4.30176 18.3601M17.9498 5.11914C19.6728 6.01214 20.8068 8.46914 21.2498 10.0821M18.8598 13.4821C19.0775 15.2052 18.9861 16.9532 18.5898 18.6441M9.06876 17.2921C8.65671 18.2673 7.96713 19.0998 7.08576 19.6861" stroke="black" stroke-width="1.5" stroke-linecap="round" stroke-linejoin="round"/>
</svg>
