<svg width="24" height="24" viewBox="0 0 24 24" fill="none" xmlns="http://www.w3.org/2000/svg">
<path d="M10.588 21.413C10.196 21.021 10 20.55 10 20H14C14 20.55 13.8043 21.021 13.413 21.413C13.0217 21.805 12.5507 22.0007 12 22C11.4493 21.9993 10.9787 21.8037 10.588 21.413ZM8 19V17H16V19H8ZM8.25 16C7.1 15.3167 6.18733 14.4 5.512 13.25C4.83667 12.1 4.49933 10.85 4.5 9.5C4.5 7.41667 5.22933 5.646 6.688 4.188C8.14667 2.73 9.91733 2.00067 12 2C14.0827 1.99933 15.8537 2.72867 17.313 4.188C18.7723 5.64733 19.5013 7.418 19.5 9.5C19.5 10.85 19.1627 12.1 18.488 13.25C17.8133 14.4 16.9007 15.3167 15.75 16H8.25ZM8.85 14H15.15C15.9 13.4667 16.4793 12.8083 16.888 12.025C17.2967 11.2417 17.5007 10.4 17.5 9.5C17.5 7.96667 16.9667 6.66667 15.9 5.6C14.8333 4.53333 13.5333 4 12 4C10.4667 4 9.16667 4.53333 8.1 5.6C7.03333 6.66667 6.5 7.96667 6.5 9.5C6.5 10.4 6.70433 11.2417 7.113 12.025C7.52167 12.8083 8.10067 13.4667 8.85 14Z" fill="black"/>
</svg>
