<svg width="24" height="24" viewBox="0 0 24 24" fill="none" xmlns="http://www.w3.org/2000/svg">
<path d="M5 21C4.45 21 3.97933 20.8043 3.588 20.413C3.19667 20.0217 3.00067 19.5507 3 19V15C3 14.45 3.196 13.9793 3.588 13.588C3.98 13.1967 4.45067 13.0007 5 13H15V10C15 9.71667 15.096 9.47933 15.288 9.288C15.48 9.09667 15.7173 9.00067 16 9C16.2827 8.99933 16.5203 9.09533 16.713 9.288C16.9057 9.48067 17.0013 9.718 17 10V13H19C19.55 13 20.021 13.196 20.413 13.588C20.805 13.98 21.0007 14.4507 21 15V19C21 19.55 20.8043 20.021 20.413 20.413C20.0217 20.805 19.5507 21.0007 19 21H5ZM7.713 17.713C7.90433 17.521 8 17.2833 8 17C8 16.7167 7.904 16.4793 7.712 16.288C7.52 16.0967 7.28267 16.0007 7 16C6.71733 15.9993 6.48 16.0953 6.288 16.288C6.096 16.4807 6 16.718 6 17C6 17.282 6.096 17.5197 6.288 17.713C6.48 17.9063 6.71733 18.002 7 18C7.28267 17.998 7.52033 17.903 7.713 17.713ZM11.213 17.712C11.4043 17.5207 11.5 17.2833 11.5 17C11.5 16.7167 11.404 16.4793 11.212 16.288C11.02 16.0967 10.7827 16.0007 10.5 16C10.2173 15.9993 9.98 16.0953 9.788 16.288C9.596 16.4807 9.5 16.718 9.5 17C9.5 17.282 9.596 17.5197 9.788 17.713C9.98 17.9063 10.2173 18.002 10.5 18C10.7827 17.998 11.0203 17.902 11.213 17.712ZM14.713 17.712C14.9043 17.5213 15 17.284 15 17C15 16.716 14.904 16.4787 14.712 16.288C14.52 16.0973 14.2827 16.0013 14 16C13.7173 15.9987 13.48 16.0947 13.288 16.288C13.096 16.4813 13 16.7187 13 17C13 17.2813 13.096 17.519 13.288 17.713C13.48 17.907 13.7173 18.0027 14 18C14.2827 17.9973 14.5203 17.9013 14.713 17.712ZM16 7.5C15.8167 7.5 15.65 7.51667 15.5 7.55C15.35 7.58333 15.2 7.63333 15.05 7.7C14.7833 7.81667 14.5127 7.86667 14.238 7.85C13.9633 7.83333 13.7257 7.725 13.525 7.525C13.3243 7.325 13.2283 7.08333 13.237 6.8C13.2457 6.51667 13.3667 6.30833 13.6 6.175C13.95 5.95833 14.3293 5.79167 14.738 5.675C15.1467 5.55833 15.5673 5.5 16 5.5C16.45 5.5 16.875 5.55833 17.275 5.675C17.675 5.79167 18.05 5.95833 18.4 6.175C18.6333 6.30833 18.7543 6.51667 18.763 6.8C18.7717 7.08333 18.6757 7.325 18.475 7.525C18.2743 7.725 18.0327 7.83333 17.75 7.85C17.4673 7.86667 17.1923 7.81667 16.925 7.7C16.7917 7.63333 16.646 7.58333 16.488 7.55C16.33 7.51667 16.1673 7.5 16 7.5ZM14.138 4.287C13.546 4.479 13 4.75833 12.5 5.125C12.2667 5.29167 12.0123 5.36667 11.737 5.35C11.4617 5.33333 11.2327 5.23333 11.05 5.05C10.85 4.85 10.75 4.61667 10.75 4.35C10.75 4.08333 10.8583 3.86667 11.075 3.7C11.7583 3.16667 12.5167 2.75 13.35 2.45C14.1833 2.15 15.0667 2 16 2C16.9333 2 17.8167 2.15 18.65 2.45C19.4833 2.75 20.2417 3.16667 20.925 3.7C21.1417 3.86667 21.25 4.08333 21.25 4.35C21.25 4.61667 21.15 4.85 20.95 5.05C20.7667 5.23333 20.5373 5.33333 20.262 5.35C19.9867 5.36667 19.7327 5.29167 19.5 5.125C19 4.75833 18.454 4.47933 17.862 4.288C17.27 4.09667 16.6493 4.00067 16 4C15.3507 3.99933 14.73 4.09433 14.138 4.287Z" fill="black"/>
</svg>
