<svg width="24" height="24" viewBox="0 0 24 24" fill="none" xmlns="http://www.w3.org/2000/svg">
<path d="M7 3C8.03875 3.00003 8.88757 3.78474 8.98926 4.7959C8.88659 3.78905 8.03336 3.00003 7 3ZM7 3C6.93108 3 6.86299 3.004 6.7959 3.01074C5.85614 3.10655 5.10658 3.85615 5.01074 4.7959C5.11244 3.78473 5.96123 3 7 3ZM5 9H9V13.5059L9.40723 13.8057C9.7078 14.0269 9.97315 14.2922 10.1943 14.5928L10.2002 14.6006C11.5273 16.3674 11.1692 18.8707 9.39941 20.2002C7.63255 21.5273 5.12927 21.1692 3.7998 19.3994C2.47265 17.6325 2.83073 15.1293 4.60059 13.7998L5 13.5V9ZM18 8.53516C18.3413 8.95119 18.762 9.48783 19.1807 10.085C19.6625 10.7721 20.1294 11.5204 20.4717 12.2422C20.8221 12.9812 21 13.606 21 14.0703C20.9999 15.1026 20.6161 15.8068 20.0918 16.2646C19.5478 16.7396 18.7914 17 18 17C17.2086 17 16.4522 16.7395 15.9082 16.2646C15.3839 15.8068 15.0001 15.1026 15 14.0703C15 13.606 15.1779 12.9812 15.5283 12.2422C15.8706 11.5204 16.3366 10.7721 16.8184 10.085C17.2372 9.48764 17.6586 8.95129 18 8.53516Z" stroke="black" stroke-width="2"/>
</svg>
