<svg width="24" height="24" viewBox="0 0 24 24" fill="none" xmlns="http://www.w3.org/2000/svg">
<path d="M11.1323 13.004C11.2592 12.783 11.4656 12.6188 11.7095 12.5449C11.9533 12.471 12.2162 12.493 12.4444 12.6063C12.6726 12.7197 12.8489 12.9158 12.9373 13.1548C13.0258 13.3937 13.0197 13.6574 12.9203 13.892L12.8683 13.996L11.7233 16H13.8283C14.0115 16 14.1917 16.0457 14.3527 16.133C14.5136 16.2203 14.6503 16.3463 14.7502 16.4998C14.8501 16.6532 14.9101 16.8292 14.9248 17.0117C14.9395 17.1942 14.9084 17.3775 14.8343 17.545L14.7833 17.645L12.8683 20.996C12.7415 21.217 12.535 21.3812 12.2912 21.4551C12.0474 21.529 11.7845 21.507 11.5563 21.3937C11.3281 21.2803 11.1518 21.0842 11.0633 20.8452C10.9749 20.6063 10.981 20.3426 11.0803 20.108L11.1323 20.004L12.2773 18H10.1723C9.98923 18 9.80902 17.9543 9.64804 17.867C9.48706 17.7797 9.35042 17.6537 9.25051 17.5002C9.15059 17.3468 9.09056 17.1708 9.07586 16.9883C9.06117 16.8058 9.09227 16.6225 9.16635 16.455L9.21735 16.355L11.1323 13.004ZM11.5003 2C12.8228 1.99959 14.1139 2.40259 15.2014 3.15518C16.2888 3.90778 17.1208 4.97417 17.5863 6.212C18.919 6.57853 20.0843 7.39377 20.8855 8.52003C21.6866 9.64628 22.0745 11.0145 21.9837 12.3937C21.8928 13.7728 21.3287 15.0783 20.3868 16.0898C19.4448 17.1012 18.1826 17.7565 16.8133 17.945C17.2623 16.39 16.4033 14.747 14.9193 14.194C15.0848 13.4923 14.9921 12.7544 14.6582 12.1154C14.3243 11.4764 13.7715 10.979 13.101 10.7141C12.4304 10.4493 11.6869 10.4347 11.0065 10.673C10.326 10.9113 9.7541 11.3866 9.39535 12.012L7.48135 15.362C7.25147 15.7581 7.11345 16.2008 7.07745 16.6574C7.04145 17.1139 7.10839 17.5728 7.27335 18H7.00035C5.85106 18.0008 4.7366 17.6056 3.84454 16.8809C2.95248 16.1563 2.33729 15.1465 2.10252 14.0214C1.86774 12.8964 2.02771 11.7248 2.5555 10.7038C3.08329 9.6829 3.94668 8.87496 5.00035 8.416C5.02244 6.70669 5.717 5.07489 6.9336 3.87401C8.1502 2.67313 9.79089 1.99986 11.5003 2Z" fill="black"/>
</svg>
