<svg width="24" height="24" viewBox="0 0 24 24" fill="none" xmlns="http://www.w3.org/2000/svg">
<path fill-rule="evenodd" clip-rule="evenodd" d="M14.9998 5.50011C14.9997 4.68845 15.2817 3.902 15.7975 3.27534C16.3134 2.64869 17.031 2.22081 17.8275 2.06492C18.6241 1.90903 19.4501 2.03484 20.1641 2.4208C20.8781 2.80676 21.4358 3.42889 21.7417 4.1807C22.0476 4.93251 22.0827 5.76726 21.8409 6.5421C21.5992 7.31693 21.0957 7.98366 20.4166 8.42818C19.7375 8.87271 18.925 9.06739 18.1182 8.9789C17.3114 8.89041 16.5604 8.52426 15.9938 7.94311L11.6698 10.2101C11.8828 10.7651 11.9998 11.3701 11.9998 12.0001C12.0002 12.6119 11.8883 13.2187 11.6698 13.7901L15.9938 16.0571C16.581 15.4555 17.3652 15.0854 18.2029 15.0145C19.0406 14.9435 19.8758 15.1765 20.5559 15.6707C21.236 16.1649 21.7154 16.8874 21.9066 17.7061C22.0977 18.5248 21.9879 19.3849 21.597 20.1292C21.2061 20.8735 20.5604 21.4523 19.778 21.7597C18.9955 22.067 18.1285 22.0825 17.3355 21.8032C16.5426 21.5239 15.8767 20.9685 15.4595 20.2386C15.0424 19.5087 14.9019 18.6531 15.0638 17.8281L10.5888 15.4821C9.89568 16.1965 9.00515 16.6878 8.03118 16.8931C7.05721 17.0984 6.04413 17.0083 5.12167 16.6344C4.19921 16.2605 3.40935 15.6197 2.85322 14.7942C2.29709 13.9687 2 12.996 2 12.0006C2 11.0052 2.29709 10.0325 2.85322 9.20702C3.40935 8.3815 4.19921 7.74076 5.12167 7.36684C6.04413 6.99291 7.05721 6.90282 8.03118 7.1081C9.00515 7.31338 9.89568 7.80469 10.5888 8.51911L15.0638 6.17211C15.0208 5.9507 14.9994 5.72565 14.9998 5.50011Z" fill="black"/>
</svg>
