<svg width="24" height="24" viewBox="0 0 24 24" fill="none" xmlns="http://www.w3.org/2000/svg">
<path fill-rule="evenodd" clip-rule="evenodd" d="M11.5072 1.95298C12.7752 1.96098 14.1782 2.46398 15.5072 3.79298C15.8222 4.10798 16.0922 4.47798 16.2072 4.91598C16.3233 5.35045 16.2626 5.81322 16.0382 6.20298C15.8542 6.53398 15.5862 6.78598 15.3602 6.97098C14.8282 7.40698 14.1952 7.71898 13.7072 8.20698C13.4383 8.47036 13.2467 8.80238 13.1532 9.16698C13.8902 8.40798 14.8212 7.67698 15.8422 7.23398C16.6552 6.88098 17.5872 6.68598 18.5432 6.87998C19.5192 7.07698 20.3992 7.65398 21.1272 8.62398C21.5952 9.24898 22.0552 10.274 22.0472 11.507C22.0392 12.775 21.5372 14.178 20.2072 15.507C19.8922 15.822 19.5232 16.092 19.0842 16.207C18.6498 16.3231 18.187 16.2623 17.7972 16.038C17.4662 15.854 17.2142 15.586 17.0292 15.36C16.5942 14.828 16.2812 14.195 15.7932 13.707C15.5299 13.4381 15.1978 13.2465 14.8332 13.153C15.5922 13.89 16.3232 14.821 16.7662 15.842C17.1192 16.655 17.3142 17.587 17.1212 18.543C16.9232 19.519 16.3462 20.399 15.3762 21.127C14.7512 21.595 13.7262 22.055 12.4932 22.047C11.2262 22.039 9.82223 21.537 8.49323 20.207C8.17823 19.892 7.90823 19.523 7.79323 19.084C7.67741 18.6494 7.73854 18.1866 7.96323 17.797C8.14623 17.466 8.41423 17.214 8.64023 17.029C9.17223 16.594 9.80523 16.281 10.2932 15.793C10.5625 15.5297 10.7545 15.1977 10.8482 14.833C10.1102 15.592 9.17823 16.323 8.15823 16.766C7.34523 17.119 6.41323 17.314 5.45723 17.121C4.48123 16.923 3.60123 16.346 2.87323 15.376C2.40523 14.751 1.94523 13.726 1.95323 12.493C1.96123 11.226 2.46423 9.82198 3.79323 8.49298C4.10823 8.17798 4.47823 7.90798 4.91623 7.79298C5.35083 7.67717 5.81361 7.7383 6.20323 7.96298C6.53423 8.14598 6.78623 8.41398 6.97123 8.63998C7.40723 9.17198 7.71923 9.80498 8.20723 10.293C8.46123 10.547 8.78623 10.754 9.16723 10.848C8.40823 10.11 7.67723 9.17798 7.23423 8.15798C6.88123 7.34498 6.68623 6.41298 6.88023 5.45698C7.07723 4.48098 7.65423 3.60098 8.62423 2.87298C9.24923 2.40498 10.2742 1.94498 11.5072 1.95298ZM9.90323 12.893C8.63323 12.987 7.52823 12.443 6.79323 11.707C6.40723 11.321 6.09523 10.863 5.85723 10.513C5.72101 10.3047 5.57622 10.1022 5.42323 9.90598C5.32623 9.78798 5.31523 9.79898 5.20723 9.90698C4.22323 10.891 3.95723 11.801 3.95323 12.507C3.94745 13.1041 4.12934 13.6879 4.47323 14.176C4.95523 14.817 5.43123 15.075 5.85323 15.16C6.29423 15.25 6.80123 15.175 7.36323 14.931C8.32323 14.515 9.25723 13.682 9.90323 12.893ZM12.8932 14.097C12.9872 15.367 12.4432 16.472 11.7072 17.207C11.3212 17.593 10.8632 17.905 10.5132 18.143C10.3082 18.283 10.0992 18.419 9.90623 18.577C9.78823 18.674 9.79923 18.685 9.90723 18.793C10.8912 19.777 11.8022 20.043 12.5072 20.047C13.1043 20.0528 13.6881 19.8709 14.1762 19.527C14.8172 19.045 15.0752 18.569 15.1602 18.147C15.2502 17.706 15.1752 17.199 14.9312 16.637C14.5152 15.677 13.6822 14.744 12.8932 14.097ZM14.0972 11.107C15.3672 11.013 16.4722 11.557 17.2072 12.293C17.7472 12.833 18.0972 13.508 18.5772 14.093C18.6742 14.213 18.6852 14.201 18.7932 14.093C19.7772 13.109 20.0432 12.199 20.0472 11.493C20.0522 10.755 19.7702 10.148 19.5272 9.82398C19.0452 9.18298 18.5692 8.92498 18.1472 8.83998C17.7062 8.74998 17.1992 8.82498 16.6372 9.06898C15.6772 9.48498 14.7442 10.318 14.0972 11.107ZM11.1072 9.90298C11.0132 8.63298 11.5572 7.52798 12.2932 6.79298C12.6902 6.39598 13.1632 6.07798 13.5172 5.83698C13.7156 5.70759 13.9081 5.56946 14.0942 5.42298C14.2122 5.32598 14.2012 5.31498 14.0932 5.20698C13.1092 4.22298 12.1992 3.95698 11.4932 3.95298C10.8962 3.9472 10.3124 4.1291 9.82423 4.47298C9.18323 4.95498 8.92523 5.43098 8.84023 5.85298C8.75023 6.29398 8.82523 6.80098 9.06923 7.36298C9.48523 8.32298 10.3182 9.25698 11.1072 9.90298Z" fill="black"/>
</svg>
