<svg width="24" height="24" viewBox="0 0 24 24" fill="none" xmlns="http://www.w3.org/2000/svg">
<path d="M18.346 4.5H5.654C5.025 4.5 4.5 5.025 4.5 5.654V11.424C4.5 12.052 5.025 12.577 5.654 12.577H18.346C18.975 12.577 19.5 12.052 19.5 11.423V5.653C19.5 5.025 18.975 4.5 18.346 4.5Z" stroke="black" stroke-width="1.5" stroke-linecap="round" stroke-linejoin="round"/>
<path d="M16.6146 12.577V10.269C16.6146 9.64099 16.0896 9.11499 15.4616 9.11499H8.53664C7.90864 9.11499 7.38364 9.64099 7.38364 10.269V12.577M6.80664 18.347C8.44664 18.347 8.53664 16.743 8.53664 15.461M17.1906 18.346C15.5506 18.346 15.4606 16.743 15.4606 15.461M11.9996 19.5V15.461" stroke="black" stroke-width="1.5" stroke-linecap="round" stroke-linejoin="round"/>
</svg>
