<svg width="24" height="24" viewBox="0 0 24 24" fill="none" xmlns="http://www.w3.org/2000/svg">
<path d="M7.87509 12.75C7.87504 13.3153 7.69252 13.8654 7.3547 14.3186C7.01687 14.7718 6.54178 15.1038 6.00009 15.2653V20.25C6.00009 20.4489 5.92107 20.6397 5.78042 20.7803C5.63977 20.921 5.449 21 5.25009 21C5.05118 21 4.86041 20.921 4.71976 20.7803C4.57911 20.6397 4.50009 20.4489 4.50009 20.25V15.2653C3.95857 15.1037 3.48367 14.7715 3.14602 14.3184C2.80836 13.8652 2.62598 13.3151 2.62598 12.75C2.62598 12.1849 2.80836 11.6348 3.14602 11.1816C3.48367 10.7285 3.95857 10.3963 4.50009 10.2347V3.75C4.50009 3.55109 4.57911 3.36032 4.71976 3.21967C4.86041 3.07902 5.05118 3 5.25009 3C5.449 3 5.63977 3.07902 5.78042 3.21967C5.92107 3.36032 6.00009 3.55109 6.00009 3.75V10.2347C6.54178 10.3962 7.01687 10.7282 7.3547 11.1814C7.69252 11.6346 7.87504 12.1847 7.87509 12.75ZM12.7501 5.73469V3.75C12.7501 3.55109 12.6711 3.36032 12.5304 3.21967C12.3898 3.07902 12.199 3 12.0001 3C11.8012 3 11.6104 3.07902 11.4698 3.21967C11.3291 3.36032 11.2501 3.55109 11.2501 3.75V5.73469C10.7086 5.89635 10.2337 6.22845 9.89602 6.68163C9.55836 7.13481 9.37598 7.68486 9.37598 8.25C9.37598 8.81514 9.55836 9.36519 9.89602 9.81837C10.2337 10.2715 10.7086 10.6037 11.2501 10.7653V20.25C11.2501 20.4489 11.3291 20.6397 11.4698 20.7803C11.6104 20.921 11.8012 21 12.0001 21C12.199 21 12.3898 20.921 12.5304 20.7803C12.6711 20.6397 12.7501 20.4489 12.7501 20.25V10.7653C13.2916 10.6037 13.7665 10.2715 14.1042 9.81837C14.4418 9.36519 14.6242 8.81514 14.6242 8.25C14.6242 7.68486 14.4418 7.13481 14.1042 6.68163C13.7665 6.22845 13.2916 5.89635 12.7501 5.73469ZM19.5001 13.2347V3.75C19.5001 3.55109 19.4211 3.36032 19.2804 3.21967C19.1398 3.07902 18.949 3 18.7501 3C18.5512 3 18.3604 3.07902 18.2198 3.21967C18.0791 3.36032 18.0001 3.55109 18.0001 3.75V13.2347C17.4586 13.3963 16.9837 13.7285 16.646 14.1816C16.3084 14.6348 16.126 15.1849 16.126 15.75C16.126 16.3151 16.3084 16.8652 16.646 17.3184C16.9837 17.7715 17.4586 18.1037 18.0001 18.2653V20.25C18.0001 20.4489 18.0791 20.6397 18.2198 20.7803C18.3604 20.921 18.5512 21 18.7501 21C18.949 21 19.1398 20.921 19.2804 20.7803C19.4211 20.6397 19.5001 20.4489 19.5001 20.25V18.2653C20.0416 18.1037 20.5165 17.7715 20.8542 17.3184C21.1918 16.8652 21.3742 16.3151 21.3742 15.75C21.3742 15.1849 21.1918 14.6348 20.8542 14.1816C20.5165 13.7285 20.0416 13.3963 19.5001 13.2347Z" fill="black"/>
</svg>
