<svg width="24" height="24" viewBox="0 0 24 24" fill="none" xmlns="http://www.w3.org/2000/svg">
<path d="M21.764 7.03521C21.688 6.75321 21.339 6.67521 21.133 6.88121L18.051 9.96121C17.8259 10.1862 17.5207 10.3127 17.2025 10.3127C16.8842 10.3127 16.579 10.1862 16.354 9.96121L14.034 7.64121C13.9224 7.52976 13.8339 7.39742 13.7735 7.25174C13.7131 7.10606 13.682 6.94991 13.682 6.79221C13.682 6.63451 13.7131 6.47836 13.7735 6.33268C13.8339 6.187 13.9224 6.05466 14.034 5.94321L17.114 2.86821C17.32 2.66121 17.243 2.31221 16.961 2.23621C15.806 1.92189 14.5886 1.91799 13.4316 2.22491C12.2747 2.53184 11.2192 3.13871 10.372 3.98421C8.33198 6.02421 7.86998 9.02821 8.95598 11.5202L3.69998 16.7682C3.47684 16.9911 3.29982 17.2558 3.17904 17.5472C3.05826 17.8385 2.99609 18.1508 2.99609 18.4662C2.99609 18.7816 3.05826 19.0939 3.17904 19.3853C3.29982 19.6766 3.47684 19.9413 3.69998 20.1642L3.83998 20.3042C4.29002 20.754 4.90023 21.0066 5.53648 21.0066C6.17273 21.0066 6.78294 20.754 7.23298 20.3042L12.496 15.0462C14.986 16.1202 17.98 15.6522 20.014 13.6162C21.801 11.8332 22.376 9.30921 21.764 7.03521Z" stroke="black" stroke-width="1.5" stroke-miterlimit="10" stroke-linecap="round" stroke-linejoin="round"/>
</svg>
