<svg width="24" height="24" viewBox="0 0 24 24" fill="none" xmlns="http://www.w3.org/2000/svg">
<path d="M9.18105 10.1811C9.23405 10.1281 9.32905 10.0621 9.63105 10.0211C9.95405 9.97805 10.3921 9.97705 11.0701 9.97705H12.9301C13.6081 9.97705 14.0461 9.97805 14.3681 10.0221C14.6711 10.0621 14.7661 10.1281 14.8181 10.1821C14.8721 10.2341 14.9381 10.3291 14.9781 10.6321C15.0221 10.9541 15.0231 11.3921 15.0231 12.0701V13.9301C15.0231 14.6081 15.0221 15.0461 14.9781 15.3681C14.9381 15.6711 14.8721 15.7661 14.8181 15.8181C14.7661 15.8721 14.6711 15.9381 14.3681 15.9781C14.0461 16.0221 13.6081 16.0231 12.9301 16.0231H11.0701C10.3921 16.0231 9.95405 16.0221 9.63205 15.9781C9.32905 15.9381 9.23405 15.8721 9.18205 15.8181C9.12805 15.7661 9.06205 15.6711 9.02205 15.3681C8.97805 15.0461 8.97705 14.6081 8.97705 13.9301V12.0701C8.97705 11.3921 8.97805 10.9541 9.02205 10.6321C9.06205 10.3291 9.12805 10.2341 9.18205 10.1821" fill="black"/>
<path fill-rule="evenodd" clip-rule="evenodd" d="M12 3C12.385 3 12.698 3.312 12.698 3.698V6.488C13.2073 6.48867 13.6723 6.49433 14.093 6.505V3.698C14.0998 3.51758 14.1763 3.34683 14.3064 3.2216C14.4364 3.09637 14.61 3.02641 14.7905 3.02641C14.971 3.02641 15.1446 3.09637 15.2746 3.2216C15.4047 3.34683 15.4812 3.51758 15.488 3.698V6.488C15.4873 6.52412 15.4846 6.56017 15.48 6.596C16.416 6.711 17.065 6.949 17.558 7.442C18.051 7.935 18.289 8.584 18.404 9.52C18.4398 9.51539 18.4759 9.51271 18.512 9.512H21.302C21.4824 9.51883 21.6532 9.59531 21.7784 9.72537C21.9036 9.85543 21.9736 10.029 21.9736 10.2095C21.9736 10.39 21.9036 10.5636 21.7784 10.6936C21.6532 10.8237 21.4824 10.9002 21.302 10.907H18.495C18.5063 11.327 18.512 11.792 18.512 12.302H21.302C21.4871 12.302 21.6647 12.3755 21.7956 12.5064C21.9265 12.6373 22 12.8149 22 13C22 13.1851 21.9265 13.3627 21.7956 13.4936C21.6647 13.6245 21.4871 13.698 21.302 13.698H18.512C18.5113 14.2073 18.5057 14.6723 18.495 15.093H21.302C21.4824 15.0998 21.6532 15.1763 21.7784 15.3064C21.9036 15.4364 21.9736 15.61 21.9736 15.7905C21.9736 15.971 21.9036 16.1446 21.7784 16.2746C21.6532 16.4047 21.4824 16.4812 21.302 16.488H18.512C18.4759 16.4873 18.4398 16.4846 18.404 16.48C18.289 17.416 18.051 18.065 17.558 18.558C17.065 19.051 16.416 19.289 15.48 19.404C15.486 19.4393 15.4887 19.4753 15.488 19.512V22.302C15.4812 22.4824 15.4047 22.6532 15.2746 22.7784C15.1446 22.9036 14.971 22.9736 14.7905 22.9736C14.61 22.9736 14.4364 22.9036 14.3064 22.7784C14.1763 22.6532 14.0998 22.4824 14.093 22.302V19.495C13.673 19.5063 13.208 19.512 12.698 19.512V22.302C12.698 22.4871 12.6245 22.6647 12.4936 22.7956C12.3627 22.9265 12.1851 23 12 23C11.8149 23 11.6373 22.9265 11.5064 22.7956C11.3755 22.6647 11.302 22.4871 11.302 22.302V19.512C10.8369 19.5121 10.3719 19.5065 9.907 19.495V22.302C9.90017 22.4824 9.82369 22.6532 9.69363 22.7784C9.56357 22.9036 9.39005 22.9736 9.2095 22.9736C9.02895 22.9736 8.85543 22.9036 8.72537 22.7784C8.59531 22.6532 8.51883 22.4824 8.512 22.302V19.512C8.512 19.4747 8.51467 19.4387 8.52 19.404C7.584 19.289 6.935 19.051 6.442 18.558C5.949 18.065 5.711 17.416 5.596 16.48C5.56017 16.4846 5.52412 16.4873 5.488 16.488H2.698C2.51758 16.4812 2.34683 16.4047 2.2216 16.2746C2.09637 16.1446 2.02641 15.971 2.02641 15.7905C2.02641 15.61 2.09637 15.4364 2.2216 15.3064C2.34683 15.1763 2.51758 15.0998 2.698 15.093H5.505C5.49354 14.6281 5.48787 14.1631 5.488 13.698H2.698C2.51288 13.698 2.33534 13.6245 2.20444 13.4936C2.07354 13.3627 2 13.1851 2 13C2 12.8149 2.07354 12.6373 2.20444 12.5064C2.33534 12.3755 2.51288 12.302 2.698 12.302H5.488C5.48867 11.7927 5.49433 11.3277 5.505 10.907H2.698C2.51758 10.9002 2.34683 10.8237 2.2216 10.6936C2.09637 10.5636 2.02641 10.39 2.02641 10.2095C2.02641 10.029 2.09637 9.85543 2.2216 9.72537C2.34683 9.59531 2.51758 9.51883 2.698 9.512H5.488C5.52533 9.512 5.56133 9.51467 5.596 9.52C5.711 8.584 5.949 7.935 6.442 7.442C6.935 6.949 7.584 6.711 8.52 6.596C8.51539 6.56017 8.51271 6.52412 8.512 6.488V3.698C8.51883 3.51758 8.59531 3.34683 8.72537 3.2216C8.85543 3.09637 9.02895 3.02641 9.2095 3.02641C9.39005 3.02641 9.56357 3.09637 9.69363 3.2216C9.82369 3.34683 9.90017 3.51758 9.907 3.698V6.505C10.327 6.49367 10.792 6.488 11.302 6.488V3.698C11.302 3.312 11.615 3 12 3ZM11.024 8.581C10.405 8.581 9.872 8.581 9.446 8.639C8.988 8.7 8.55 8.839 8.194 9.194C7.839 9.55 7.7 9.988 7.639 10.446C7.581 10.873 7.581 11.406 7.581 12.024V13.976C7.581 14.595 7.581 15.127 7.639 15.554C7.7 16.012 7.839 16.45 8.194 16.806C8.55 17.161 8.988 17.3 9.446 17.361C9.872 17.419 10.406 17.419 11.024 17.419H12.976C13.595 17.419 14.127 17.419 14.554 17.361C15.012 17.3 15.45 17.161 15.806 16.806C16.161 16.45 16.3 16.012 16.361 15.554C16.419 15.127 16.419 14.594 16.419 13.976V12.024C16.419 11.405 16.419 10.873 16.361 10.446C16.3 9.988 16.161 9.55 15.806 9.194C15.45 8.839 15.012 8.7 14.554 8.639C14.127 8.581 13.594 8.581 12.976 8.581H11.024Z" fill="black"/>
</svg>
