<svg width="24" height="24" viewBox="0 0 24 24" fill="none" xmlns="http://www.w3.org/2000/svg">
<path d="M16.0725 20.3001C16.6127 20.7532 17.2953 21.0016 18.0005 21.0016C18.7056 21.0016 19.3882 20.7532 19.9285 20.3001C20.4688 19.8467 20.8321 19.2176 20.9546 18.523C21.0772 17.8284 20.9511 17.1129 20.5985 16.5021L18.5035 13.2751C18.449 13.1915 18.3745 13.1229 18.2867 13.0753C18.199 13.0278 18.1008 13.0029 18.001 13.0029C17.9012 13.0029 17.803 13.0278 17.7153 13.0753C17.6275 13.1229 17.553 13.1915 17.4985 13.2751L15.4005 16.5021C15.048 17.113 14.9221 17.8286 15.0448 18.5232C15.1675 19.2178 15.531 19.8469 16.0715 20.3001M4.07248 20.3001C4.61273 20.7532 5.29534 21.0016 6.00048 21.0016C6.70563 21.0016 7.38824 20.7532 7.92848 20.3001C8.46879 19.8467 8.83212 19.2176 8.95464 18.523C9.07717 17.8284 8.95107 17.1129 8.59848 16.5021L6.50348 13.2751C6.44896 13.1915 6.37445 13.1229 6.28671 13.0753C6.19897 13.0278 6.10076 13.0029 6.00098 13.0029C5.9012 13.0029 5.80299 13.0278 5.71525 13.0753C5.62751 13.1229 5.55301 13.1915 5.49848 13.2751L3.40048 16.5021C3.04801 17.113 2.92207 17.8286 3.04478 18.5232C3.16749 19.2178 3.53201 19.8469 4.07248 20.3001ZM10.0725 10.3001C10.6127 10.7532 11.2953 11.0016 12.0005 11.0016C12.7056 11.0016 13.3882 10.7532 13.9285 10.3001C14.4688 9.84675 14.8321 9.21756 14.9546 8.52299C15.0772 7.82843 14.9511 7.1129 14.5985 6.50207L12.5035 3.27507C12.449 3.1915 12.3745 3.12285 12.2867 3.07533C12.199 3.02781 12.1008 3.00293 12.001 3.00293C11.9012 3.00293 11.803 3.02781 11.7153 3.07533C11.6275 3.12285 11.553 3.1915 11.4985 3.27507L9.40048 6.50207C9.04801 7.11301 8.92207 7.82861 9.04478 8.52318C9.16749 9.21776 9.53201 9.84688 10.0725 10.3001Z" stroke="black" stroke-width="2" stroke-linecap="round" stroke-linejoin="round"/>
</svg>
