<svg width="24" height="24" viewBox="0 0 24 24" fill="none" xmlns="http://www.w3.org/2000/svg">
<g clip-path="url(#clip0_412_15026)">
<path d="M12 24C8.8174 24 5.76516 22.7357 3.51472 20.4853C1.26428 18.2348 0 15.1826 0 12C0 8.8174 1.26428 5.76516 3.51472 3.51472C5.76516 1.26428 8.8174 0 12 0C15.1826 0 18.2348 1.26428 20.4853 3.51472C22.7357 5.76516 24 8.8174 24 12C24 15.1826 22.7357 18.2348 20.4853 20.4853C18.2348 22.7357 15.1826 24 12 24ZM21.3 14.4C21.7065 12.8258 21.7065 11.1742 21.3 9.6H16.716C16.8265 11.1981 16.8265 12.8019 16.716 14.4H21.3ZM20.316 16.8H16.452C16.2515 18.2465 15.8685 19.6618 15.312 21.012C17.4201 20.2344 19.1901 18.7445 20.316 16.8ZM9.696 14.4H14.304C14.4343 12.8027 14.4343 11.1973 14.304 9.6H9.696C9.5657 11.1973 9.5657 12.8027 9.696 14.4ZM9.996 16.8C10.488 19.68 11.352 21.6 12 21.6C12.648 21.6 13.512 19.68 14.004 16.8H9.996ZM2.7 14.4H7.284C7.17352 12.8019 7.17352 11.1981 7.284 9.6H2.7C2.29355 11.1742 2.29355 12.8258 2.7 14.4ZM3.684 16.8C4.80991 18.7445 6.57994 20.2344 8.688 21.012C8.184 19.86 7.8 18.42 7.548 16.8H3.684ZM20.316 7.2C19.1901 5.25553 17.4201 3.76564 15.312 2.988C15.816 4.14 16.2 5.58 16.452 7.2H20.316ZM9.996 7.2H14.004C13.512 4.32 12.648 2.4 12 2.4C11.352 2.4 10.488 4.32 9.996 7.2ZM3.684 7.2H7.548C7.788 5.58 8.184 4.14 8.688 2.988C6.57994 3.76564 4.80991 5.25553 3.684 7.2Z" fill="black"/>
</g>
<defs>
<clipPath id="clip0_412_15026">
<rect width="24" height="24" fill="white"/>
</clipPath>
</defs>
</svg>
